<svg xmlns="http://www.w3.org/2000/svg" width="41" height="41" fill="none" viewBox="0 0 41 41"><g fill="#1c1d20" clip-path="url(#a)"><path d="M40.5 9.953v-5.86A3.52 3.52 0 0 0 36.984.579H4.016A3.52 3.52 0 0 0 .5 4.094v5.86zM27.531 5.266h7.032a1.172 1.172 0 0 1 0 2.343H27.53a1.172 1.172 0 0 1 0-2.343m-11.718 0a1.172 1.172 0 1 1 0 2.343 1.172 1.172 0 0 1 0-2.343m-4.688 0a1.172 1.172 0 1 1 0 2.343 1.172 1.172 0 0 1 0-2.343m-4.687 0a1.172 1.172 0 1 1 0 2.343 1.172 1.172 0 0 1 0-2.343M.5 12.297v24.61a3.52 3.52 0 0 0 3.516 3.515h32.968a3.52 3.52 0 0 0 3.516-3.516v-24.61zM14.2 28.96a1.172 1.172 0 1 1-1.463 1.83l-5.86-4.687a1.172 1.172 0 0 1 0-1.83l5.86-4.688a1.172 1.172 0 1 1 1.464 1.83l-4.716 3.773zm10.893-11.514L18.06 33.852a1.172 1.172 0 1 1-2.154-.923l7.032-16.406a1.172 1.172 0 0 1 2.154.923m9.03 8.657-5.86 4.687a1.172 1.172 0 0 1-1.464-1.83l4.716-3.773-4.716-3.772a1.172 1.172 0 1 1 1.464-1.83l5.86 4.688a1.172 1.172 0 0 1 0 1.83"/></g><defs><clipPath id="a"><path fill="#fff" d="M.5.5h40v40H.5z"/></clipPath></defs></svg>