<svg xmlns="http://www.w3.org/2000/svg" width="45" height="45" fill="none" viewBox="0 0 45 45"><g fill="#000" fill-rule="evenodd" clip-rule="evenodd"><path d="m38.114 10.839-3.703-3.703a.955.955 0 0 0-1.233-.1l-3.43 2.475a.95.95 0 0 1-.962.093 14 14 0 0 0-1.335-.547.95.95 0 0 1-.624-.758L26.2 4.064a.955.955 0 0 0-.944-.815H20.02a.955.955 0 0 0-.943.802l-.696 4.307a.96.96 0 0 1-.621.746q-.61.22-1.203.5a.96.96 0 0 1-.978-.096L12.04 6.883a.955.955 0 0 0-1.244.092l-3.703 3.703a.955.955 0 0 0-.1 1.233l2.587 3.585a.96.96 0 0 1 .087.971q-.27.568-.486 1.153a.96.96 0 0 1-.756.617l-4.404.653a.955.955 0 0 0-.815.944v5.236c0 .469.34.868.802.943l4.318.699a.96.96 0 0 1 .75.634q.213.615.483 1.21a.96.96 0 0 1-.102.966L6.841 33.05a.954.954 0 0 0 .091 1.243l3.703 3.703a.955.955 0 0 0 1.234.1l3.444-2.486a.95.95 0 0 1 .978-.084q.651.323 1.327.575a.95.95 0 0 1 .604.752l.625 4.215c.07.468.471.815.944.815h5.237c.468 0 .867-.34.942-.802l.658-4.068a.96.96 0 0 1 .641-.75q.734-.247 1.443-.575a.96.96 0 0 1 .974.098l3.321 2.463c.38.282.91.243 1.244-.092l3.702-3.702a.955.955 0 0 0 .1-1.234l-2.374-3.29a.96.96 0 0 1-.081-.983q.354-.725.622-1.477a.96.96 0 0 1 .76-.629l4.046-.6a.955.955 0 0 0 .815-.944v-5.236a.955.955 0 0 0-.803-.943l-4.051-.655a.96.96 0 0 1-.75-.63 14 14 0 0 0-.594-1.431.96.96 0 0 1 .091-.988l2.472-3.332a.955.955 0 0 0-.092-1.244M33.27 22.566c0 5.935-4.81 10.746-10.746 10.746-5.935 0-10.746-4.81-10.746-10.746 0-5.935 4.811-10.746 10.746-10.746S33.27 16.63 33.27 22.566"/><path d="m19.167 27.318-2.518-2.519a1.696 1.696 0 0 1 2.398-2.398l1.206 1.207L26 17.86a1.696 1.696 0 0 1 2.398 2.398l-7.059 7.059c-.6.6-1.572.6-2.172 0"/></g></svg>