<?xml version="1.0" encoding="UTF-8"?>
<svg version="1.1" xmlns="http://www.w3.org/2000/svg" width="80" height="80">
<path d="M0 0 C8.3118235 5.95680684 15.54964896 14.28327475 17.65625 24.4921875 C18.95973362 37.55269403 18.25203982 48.31928309 10.46875 59.1796875 C4.03115824 66.93219162 -4.26636247 73.68603635 -14.57958984 74.71533203 C-28.16980511 75.56388922 -38.49700031 74.39143194 -49.2421875 65.46875 C-57.85597057 57.36731091 -62.39695758 48.9904253 -62.81445312 37.16064453 C-62.95715343 24.16302498 -60.41790029 15.1401971 -51.34375 5.4921875 C-37.44322599 -7.58153954 -16.34466186 -10.51506579 0 0 Z " fill="#448C74" transform="translate(62.34375,5.5078125)"/>
<path d="M0 0 C3.70287655 -0.29042169 6.31510008 -0.31489651 9.71875 1.25 C13.44018304 5.73611106 12.52451211 10.62678661 12.3125 16.25 C12.28994141 17.37664063 12.26738281 18.50328125 12.24414062 19.6640625 C12.18524254 22.44405232 12.10304201 25.22135332 12 28 C-2.0914934 29.9915531 -2.0914934 29.9915531 -6.3984375 27.75390625 C-9.15364414 24.73661898 -9.92937368 22.40963263 -10.625 18.375 C-9.90568855 14.49071819 -8.77098328 12.77098328 -6 10 C-3.47524538 8.73762269 -1.68799534 8.90143596 1.125 8.9375 C2.03507812 8.94652344 2.94515625 8.95554687 3.8828125 8.96484375 C4.58148438 8.97644531 5.28015625 8.98804688 6 9 C5.67 8.34 5.34 7.68 5 7 C2.47266765 6.34444881 2.47266765 6.34444881 0 6 C0 4.02 0 2.04 0 0 Z " fill="#F8FAFA" transform="translate(52,25)"/>
<path d="M0 0 C2.31 0 4.62 0 7 0 C7 10.56 7 21.12 7 32 C12.87883003 31.96042231 12.87883003 31.96042231 18.75756836 31.90991211 C19.48596924 31.90741455 20.21437012 31.90491699 20.96484375 31.90234375 C21.7137085 31.89710693 22.46257324 31.89187012 23.23413086 31.88647461 C25 32 25 32 26 33 C26 34.65 26 36.3 26 38 C17.42 38 8.84 38 0 38 C0 25.46 0 12.92 0 0 Z " fill="#F0F6F4" transform="translate(16,16)"/>
<path d="M0 0 C2.05078125 0.03255208 4.1015625 0.06510417 6.15234375 0.09765625 C4.27734375 5.97265625 4.27734375 5.97265625 3.15234375 7.09765625 C0.71484375 7.28515625 0.71484375 7.28515625 -1.84765625 7.09765625 C-2.50765625 6.43765625 -3.16765625 5.77765625 -3.84765625 5.09765625 C-3.1001104 0.16385362 -3.1001104 0.16385362 0 0 Z " fill="#4C917A" transform="translate(51.84765625,39.90234375)"/>
<path d="M0 0 C2 1 2 1 2 1 Z " fill="#448C73" transform="translate(53,79)"/>
<path d="M0 0 C2 1 2 1 2 1 Z " fill="#448C73" transform="translate(25,79)"/>
<path d="M0 0 C2 1 2 1 2 1 Z " fill="#438A75" transform="translate(61,75)"/>
<path d="M0 0 C2 1 2 1 2 1 Z " fill="#438A75" transform="translate(17,75)"/>
<path d="M0 0 C2 1 2 1 2 1 Z " fill="#428B73" transform="translate(64,73)"/>
<path d="M0 0 C2 1 2 1 2 1 Z " fill="#438A74" transform="translate(14,73)"/>
<path d="" fill="#438B73" transform="translate(0,0)"/>
<path d="" fill="#448B73" transform="translate(0,0)"/>
<path d="" fill="#448976" transform="translate(0,0)"/>
<path d="" fill="#448B73" transform="translate(0,0)"/>
<path d="" fill="#438B73" transform="translate(0,0)"/>
<path d="" fill="#438B73" transform="translate(0,0)"/>
<path d="" fill="#438B73" transform="translate(0,0)"/>
<path d="" fill="#438B73" transform="translate(0,0)"/>
<path d="" fill="#438B74" transform="translate(0,0)"/>
<path d="" fill="#438B74" transform="translate(0,0)"/>
<path d="" fill="#438B73" transform="translate(0,0)"/>
<path d="" fill="#438B74" transform="translate(0,0)"/>
<path d="" fill="#438B73" transform="translate(0,0)"/>
<path d="" fill="#438B73" transform="translate(0,0)"/>
<path d="" fill="#428B73" transform="translate(0,0)"/>
<path d="" fill="#448A74" transform="translate(0,0)"/>
<path d="" fill="#438B73" transform="translate(0,0)"/>
<path d="" fill="#448976" transform="translate(0,0)"/>
<path d="" fill="#458B73" transform="translate(0,0)"/>
<path d="" fill="#448B73" transform="translate(0,0)"/>
<path d="M0 0 C2 1 2 1 2 1 Z " fill="#438A74" transform="translate(64,6)"/>
<path d="M0 0 C2 1 2 1 2 1 Z " fill="#438A73" transform="translate(14,6)"/>
<path d="M0 0 C2 1 2 1 2 1 Z " fill="#448C73" transform="translate(53,0)"/>
<path d="M0 0 C2 1 2 1 2 1 Z " fill="#458B73" transform="translate(25,0)"/>
<path d="" fill="#428A74" transform="translate(0,0)"/>
<path d="" fill="#438B73" transform="translate(0,0)"/>
<path d="" fill="#438B74" transform="translate(0,0)"/>
<path d="" fill="#438C73" transform="translate(0,0)"/>
<path d="" fill="#438B73" transform="translate(0,0)"/>
<path d="" fill="#438B73" transform="translate(0,0)"/>
<path d="" fill="#438B73" transform="translate(0,0)"/>
<path d="" fill="#438B74" transform="translate(0,0)"/>
<path d="" fill="#438B73" transform="translate(0,0)"/>
<path d="" fill="#438A74" transform="translate(0,0)"/>
<path d="" fill="#438B74" transform="translate(0,0)"/>
<path d="" fill="#438A74" transform="translate(0,0)"/>
<path d="" fill="#438B74" transform="translate(0,0)"/>
<path d="" fill="#438B74" transform="translate(0,0)"/>
<path d="" fill="#448B73" transform="translate(0,0)"/>
<path d="" fill="#448B73" transform="translate(0,0)"/>
<path d="" fill="#438B74" transform="translate(0,0)"/>
<path d="" fill="#448B73" transform="translate(0,0)"/>
<path d="" fill="#438B73" transform="translate(0,0)"/>
<path d="" fill="#438B74" transform="translate(0,0)"/>
<path d="" fill="#428B73" transform="translate(0,0)"/>
<path d="" fill="#438A74" transform="translate(0,0)"/>
<path d="" fill="#448B74" transform="translate(0,0)"/>
<path d="" fill="#448B73" transform="translate(0,0)"/>
<path d="" fill="#438C73" transform="translate(0,0)"/>
<path d="" fill="#448B74" transform="translate(0,0)"/>
<path d="" fill="#448A74" transform="translate(0,0)"/>
<path d="" fill="#448B73" transform="translate(0,0)"/>
<path d="" fill="#448C73" transform="translate(0,0)"/>
<path d="" fill="#458B73" transform="translate(0,0)"/>
<path d="" fill="#448B73" transform="translate(0,0)"/>
<path d="" fill="#438B73" transform="translate(0,0)"/>
<path d="" fill="#438B73" transform="translate(0,0)"/>
<path d="" fill="#438B73" transform="translate(0,0)"/>
<path d="" fill="#438B73" transform="translate(0,0)"/>
<path d="" fill="#438B73" transform="translate(0,0)"/>
<path d="" fill="#448B73" transform="translate(0,0)"/>
<path d="" fill="#448B73" transform="translate(0,0)"/>
<path d="" fill="#438B74" transform="translate(0,0)"/>
<path d="" fill="#448B74" transform="translate(0,0)"/>
<path d="" fill="#448A74" transform="translate(0,0)"/>
<path d="" fill="#438B74" transform="translate(0,0)"/>
<path d="" fill="#448A74" transform="translate(0,0)"/>
<path d="" fill="#438B73" transform="translate(0,0)"/>
<path d="" fill="#438C73" transform="translate(0,0)"/>
<path d="" fill="#438B73" transform="translate(0,0)"/>
<path d="" fill="#428B73" transform="translate(0,0)"/>
<path d="" fill="#438B73" transform="translate(0,0)"/>
<path d="" fill="#438B73" transform="translate(0,0)"/>
<path d="" fill="#438C72" transform="translate(0,0)"/>
<path d="" fill="#438B73" transform="translate(0,0)"/>
<path d="" fill="#438B73" transform="translate(0,0)"/>
<path d="" fill="#428A74" transform="translate(0,0)"/>
<path d="" fill="#438A74" transform="translate(0,0)"/>
</svg>
