<svg xmlns="http://www.w3.org/2000/svg" width="1000" height="1000" fill="none" viewBox="0 0 1000 1000"><ellipse cx="267.756" cy="994.89" fill="#8982bc" opacity=".17" rx="52.089" ry="5.11"/><path fill="#8982bc" d="M208.107 896.246c0 2.888-23.314 5.11-52.089 5.11s-52.088-2.222-52.088-5.11 23.313-5.11 52.088-5.11 52.089 2.221 52.089 5.11" opacity=".17"/><ellipse cx="811.116" cy="905.132" fill="#8982bc" opacity=".17" rx="64.691" ry="5.11"/><path fill="#8982bc" d="M473.38 894.468c0 2.444-20.584 4.444-45.788 4.444s-45.787-2-45.787-4.444 20.583-4.443 45.787-4.443c25.414-.223 45.788 1.777 45.788 4.443" opacity=".17"/><path fill="#ddd6ff" d="M212.938 324.154v565.649H781.08V343.039z"/><path fill="#8982bc" d="m365.003 740.281-8.401 153.521 285.226-4.888z" opacity=".18"/><path fill="#8982bc" d="M368.781 893.135 365 740.281l271.994-15.774 4.831 164.407z"/><path fill="#8982bc" d="m462.668 521.22 3.15 142.856 280.816-2.444-13.022-166.851z" opacity=".18"/><path fill="#eff3fb" d="m210.207 357.257 570.873 4.222V337.04l-570.873-13.997z"/><path fill="#624fb5" d="M210.207 357.258v49.544H781.08v-45.323z"/><ellipse cx="17.503" cy="16.644" fill="#fff" rx="17.503" ry="16.644" transform="matrix(.2171 -.97615 .9704 .24149 271.625 396.177)"/><path fill="#fff" d="M303.043 376.143v11.997h83.173v-11.997m46.421-8.443v31.993h210.454v-29.327z"/><path fill="#4d7eb7" d="M447.112 379.098v-.781h5.454v.781h-2.287v6.492h-.88v-6.492zm8.196 6.605q-.789 0-1.36-.348a2.33 2.33 0 0 1-.877-.98q-.306-.631-.306-1.47 0-.838.306-1.477.309-.643.859-1.002.554-.362 1.293-.362.426 0 .841.142a2.1 2.1 0 0 1 .757.462q.34.316.543.838.202.522.202 1.286v.355h-4.204v-.725h3.352q0-.462-.185-.824a1.4 1.4 0 0 0-.518-.571 1.45 1.45 0 0 0-.788-.21q-.501 0-.867.249a1.63 1.63 0 0 0-.557.639 1.9 1.9 0 0 0-.196.845v.483q0 .618.213 1.048.217.426.601.649.382.22.891.221.33 0 .596-.093a1.3 1.3 0 0 0 .466-.284q.195-.191.302-.476l.809.228a1.8 1.8 0 0 1-.43.724 2.1 2.1 0 0 1-.745.483 2.8 2.8 0 0 1-.998.17m4.012-5.568 1.307 2.23 1.306-2.23h.966l-1.761 2.728 1.761 2.727h-.966l-1.306-2.117-1.307 2.117h-.966l1.733-2.727-1.733-2.728zm7.147 0v.711h-2.826v-.711zm-2.003-1.307h.839v5.199q0 .356.103.533a.53.53 0 0 0 .269.234q.168.057.352.057.138 0 .227-.014l.142-.028.171.752a2 2 0 0 1-.238.064 1.7 1.7 0 0 1-.387.036q-.356 0-.696-.153a1.4 1.4 0 0 1-.561-.465q-.22-.312-.221-.788z"/><ellipse cx="229.532" cy="342.373" fill="#fc846d" rx="3.571" ry="3.777"/><ellipse cx="245.914" cy="342.373" fill="#f9d452" rx="3.571" ry="3.777"/><path fill="#57be8b" d="M265.868 342.373c0 1.999-1.471 3.777-3.571 3.777-1.89 0-3.57-1.556-3.57-3.777 0-2 1.47-3.777 3.57-3.777s3.571 1.555 3.571 3.777"/><path fill="#c4b9ff" d="M258.723 446.126h7.561v101.31h-7.561z"/><path fill="#8982bc" d="M282.461 453.68v8.442h103.757l1.26-9.775zm175.164-11.331v8.443h289.217l3.571-9.554zm0 229.947v8.443h289.217l3.571-9.553zm0-200.842v8.442h110.058l1.47-9.553zm0 230.391v8.442h110.058l1.47-9.775zM283.508 479.896v8.665h103.547l.42-7.776zm-.422 28.215v8.443h103.547l.42-7.776zm0 30.883v8.665h103.547l.42-7.776z"/><path fill="#fe9887" d="m462.668 513.444 11.762 150.854 271.154-23.55-11.972-153.965z"/><path fill="#8982bc" d="M706.309 644.749c-2.311-4.888-3.781-10.22-4.831-15.552a5.7 5.7 0 0 1 0-2.666c.42-2 2.73-3.111 4.621-2.889 1.89.222 3.57 1.555 4.83 3.111 1.261 1.555 2.521 3.332 3.781 4.665 1.05.889 2.1 1.778 3.15 2.444 2.521 1.555 5.461 2.888 8.192 3.999 1.89.667 3.78 1.111 5.041 2.444-1.891.889-4.201.889-6.301.889-6.511-.222-13.023.666-19.534 2.222.421-.445 1.261-.667 1.891-.445m37.386-34.438c-5.25-2.888-6.721-9.775-8.191-15.774a112.6 112.6 0 0 0-12.392-31.548c-1.05-1.777-2.1-3.555-2.52-5.554-.63-3.999 1.47-7.999 4.83-9.998 3.361-2 7.352-2.222 10.922-1.333z" opacity=".18"/><path fill="#ddd6ff" d="m769.32 844.924 3.361 5.776 4.201-2.221-3.781-6.221z"/><path fill="#3f327a" d="M788.436 864.697s-18.693-4.665-21.633-2.221c-2.941 2.444 21.633 5.776 21.633 5.776z"/><path fill="#f7d3a9" d="M718.702 640.305s.21-9.998-.42-9.998c-1.68-.444-1.89 4.666-1.89 4.666s-2.941-9.776-4.201-9.331c-.84.222.21 5.998.21 5.998s-2.31-4.443-3.571-4.221c-1.05.222 1.261 6.443 1.261 6.443s-2.101-2.888-3.151-2.666c-.84.222 6.721 13.552 6.721 13.552z"/><path fill="#3f327a" d="M758.187 716.51s-29.615 37.991-14.912 82.648c14.912 44.656 24.784 49.322 24.784 49.322l8.611-4.666s-16.593-41.768-17.223-56.876c-.63-13.775 22.054-46.211 22.054-46.211l-4.621 122.86 10.922 1.556s29.195-137.747 26.044-148.411c-2.94-11.109-15.962-26.661-55.659-.222"/><path fill="#ffc359" d="m751.675 664.299 6.511 51.988 53.139-6.665-21.634-81.093-15.962 2.666-11.342 1.333c-6.511.889-10.502 2-15.123 6.888l-18.483 22.439-9.241-23.328-7.981 4.221s6.511 42.435 17.012 38.214c7.141-2.888 23.104-16.663 23.104-16.663"/><path fill="#ffc359" d="M742.649 563.656s11.762 31.326 13.232 36.214 33.816 28.66 33.816 28.66l-15.963 7.776-31.295-30.659-6.931-41.991z"/><path fill="#f7d3a9" d="m754.831 596.759-4.411 16.44c-1.05 3.555 1.051 7.554 4.411 8.443l2.1.666v11.775h9.452c3.361 0 6.091-2.888 6.091-6.442V600.98z"/><path fill="#353e70" d="M763.86 623.197c-1.681-1.333-4.201-3.777-4.201-7.11 0 0 6.511-.222 4.831-5.109-1.05-2.889-4.831-.667-4.831-.667s1.47-5.999.63-7.998c0 0-11.342 0-9.451-7.11 0 0 3.15-3.11 10.291-3.332 7.141-.445 10.922 12.219 10.922 12.219l-5.881 18.218c-.63 1.111-1.68 1.556-2.31.889"/><path fill="#f7d3a9" d="M735.712 563.655s-5.881-7.776-5.671-8.22c1.05-1.555 4.2 2.222 4.2 2.222s-3.57-9.554-2.1-10.22c.84-.222 3.151 4.888 3.151 4.888s-.841-5.11.21-5.777c1.05-.444 2.73 5.777 2.73 5.777s0-3.555 1.05-4c.63-.222 2.731 15.108 2.731 15.108h-6.301z"/><path fill="#d69e43" d="M763.65 655.412c0 .223-.63.445-1.89 1.556-1.051.888-2.731 2.221-4.411 3.554-3.571 2.666-6.511 4.666-6.721 4.444s2.73-2.444 6.091-5.11c1.68-1.333 3.36-2.444 4.621-3.333 1.47-1.111 2.31-1.333 2.31-1.111m8.819-31.77h.21c.21 0 .21.444.42.666 0 .667 0 1.555-.21 2.444-.21 1.111-.42 2.222-1.26 3.555-.42.666-.84 1.111-1.47 1.777-.63.444-1.26.889-2.101 1.111-2.94.889-5.67 1.111-7.771 1.111-1.89 0-3.15-.222-3.15-.445 0-.222 1.26 0 3.15-.222s4.621-.444 7.351-1.333c1.471-.444 2.311-1.333 3.151-2.444q.945-1.666 1.26-3.332c.21-.889.42-1.778.42-2.444.21-.222-.21-.444 0-.444m-44.315 45.545s.21.222.21.666h-.42c-.21-.666-.21-2.222-.21-3.777.21-2.444.63-4.443.84-4.443.211 0 .211 1.999 0 4.443 0 1.555-.21 3.111-.21 3.777h-.42c0-.444.21-.666.21-.666"/><path fill="#d69e43" d="M730.047 667.41c-.21 0-.63-1.555-1.051-3.333-.42-1.999-.42-3.555-.21-3.555s.63 1.556 1.051 3.333c.21 2 .42 3.555.21 3.555m-9.871-26.662c0 .222-1.89 1.111-4.411 2.222-2.52.889-4.62 1.555-4.62 1.333s1.89-1.111 4.41-2.222c2.521-.888 4.621-1.555 4.621-1.333m88.632 63.986s-.63.445-1.68 1.111c-1.261.667-2.941 1.333-5.251 2-4.621 1.333-11.132 2.888-18.273 4.221-3.571.666-6.931 1.333-10.082 1.777-3.15.445-5.881.889-8.401 1.111-2.311.222-4.411 0-5.671-.444-1.26-.222-2.101-.667-1.89-.667 0 0 .63.223 2.1.445q1.89.333 5.671 0a68 68 0 0 0 8.191-1.333c3.151-.445 6.511-1.111 10.082-1.778 7.141-1.333 13.652-2.888 18.273-3.999 2.31-.666 4.2-1.333 5.251-1.777 1.05-.222 1.68-.667 1.68-.667"/><path fill="#8982bc" d="M763.227 654.968s-3.151 24.217-9.662 27.993l-2.1-17.773z" opacity=".25"/><path fill="#353e70" d="M753.145 600.98c-1.05-1.111-2.1-1.999-2.73-3.332-.42-1.555.21-5.332 1.47-6.221 1.47-.889 3.361 0 5.041.222 2.52.445 5.041-.666 7.771-.889 2.521-.222 5.671.667 6.511 3.111.21.444.21 1.111.84 1.333h.63c2.101-.222 3.361 2.222 3.361 4.443-.21 2.222-1.26 3.999-1.68 5.999-1.05 4.443.84 9.553-1.05 13.775-1.471 3.332-6.091 6.22-9.242 3.777l3.991-19.107z"/><path fill="#3f327a" d="M776.879 848.479s-17.432 8.221-18.483 11.998c-1.05 3.777 20.584-9.331 20.584-9.331z"/><path fill="#2c2656" d="M759.45 781.161c.21.222-2.1 1.777-5.041 3.555-2.94 1.777-5.461 2.666-5.671 2.444 0-.222 2.311-1.556 5.251-3.333 2.941-1.555 5.251-2.888 5.461-2.666m-.213 5.332c0 .222-1.68.889-3.78 2.222-2.101 1.333-3.571 2.444-3.781 2.221s1.26-1.777 3.361-3.11c2.1-1.111 4.2-1.555 4.2-1.333m38.645 10.443c0 .222-2.941-.222-6.091-1.333-3.361-1.111-5.881-2.444-5.881-2.666 0-.223 2.731.666 6.091 1.777 3.151 1.111 5.881 2 5.881 2.222m.842-1.778c0 .222-2.731-.444-6.091-1.999-3.151-1.333-5.461-3.111-5.461-3.333.21-.222 2.73 1.111 5.881 2.444 3.15 1.555 5.671 2.666 5.671 2.888m-29.403 50.21c.21-.222.63.222 1.05 1.111.42.666.63 1.333.42 1.555s-.63-.222-1.05-1.111c-.42-.888-.63-1.555-.42-1.555m-5.669-10.442c.21-.222 1.05.888 1.681 2.444.84 1.333 1.26 2.666 1.05 2.888s-1.05-.889-1.681-2.444c-.63-1.333-1.05-2.666-1.05-2.888m-4.832-10.663c.21 0 .84 1.111 1.471 2.444.63 1.555 1.05 2.666.84 2.888-.21 0-.84-1.111-1.471-2.444-.63-1.333-1.05-2.666-.84-2.888m-4.202-10.887c.21 0 .841 1.111 1.471 2.666s.84 2.888.63 2.888-.84-1.111-1.471-2.666c-.42-1.555-.84-2.888-.63-2.888m-3.356-11.331c.21 0 .84 1.111 1.26 2.666s.63 2.888.42 2.888-.84-1.111-1.26-2.666-.63-2.888-.42-2.888m-2.738-11.553c.211 0 .631 1.111 1.051 2.888.42 1.556.42 2.889.21 2.889s-.63-1.111-1.05-2.889c-.211-1.555-.421-2.888-.211-2.888m-1.043-11.775c.21 0 .42 1.333.63 2.888 0 1.555 0 2.888-.21 2.888s-.42-1.333-.63-2.888 0-2.888.21-2.888m.419-11.997c.21 0 .21 1.333.21 2.888-.21 1.555-.42 2.888-.63 2.888s-.21-1.333-.21-2.888c.21-1.555.42-2.888.63-2.888m2.104-11.553c.21 0 .21 1.333-.21 2.888s-.841 2.888-1.051 2.888-.21-1.333.21-2.888c.421-1.777.841-2.888 1.051-2.888m3.571-11.33c.21 0 0 1.333-.631 2.888-.63 1.555-1.05 2.666-1.26 2.666s0-1.333.63-2.888c.42-1.555 1.051-2.666 1.261-2.666m4.828-10.665c.21.222-.21 1.333-.84 2.888s-1.47 2.444-1.68 2.444.21-1.333.84-2.888c.84-1.555 1.47-2.444 1.68-2.444m6.085-9.998c.21.222-.42 1.333-1.26 2.666s-1.68 2.444-1.89 2.222.42-1.333 1.26-2.666 1.68-2.444 1.89-2.222m5.044-7.11c.21.223 0 .889-.631 1.333-.42.667-1.05 1.111-1.26.889s0-.889.63-1.333c.63-.666 1.05-.889 1.261-.889"/><path fill="#8982bc" d="M844.934 905.133c-.63.222-7.981-35.77-16.383-80.427-8.611-44.434-14.912-80.648-14.492-80.87.63-.222 7.981 35.77 16.383 80.426 8.611 44.657 15.122 80.648 14.492 80.871m25.203 0c-.63.222-7.981-35.77-16.383-80.427-8.611-44.434-14.912-80.648-14.492-80.87.63-.222 7.981 35.77 16.383 80.426 8.611 44.657 15.122 80.648 14.492 80.871"/><path fill="#8982bc" d="M769.32 728.729h75.822v15.108H769.32z"/><path fill="#8982bc" d="M803.346 736.505c.63 0-5.251 37.991-12.812 84.425-7.561 46.656-14.283 84.203-14.703 84.203-.63 0 5.251-37.991 12.813-84.647 7.561-46.434 14.072-84.203 14.702-83.981m-20.375 0c.63 0-5.251 37.991-12.812 84.425-7.561 46.656-14.282 84.203-14.703 84.203-.63 0 5.251-37.991 12.813-84.647 7.561-46.434 14.282-84.203 14.702-83.981m44.111 74.649h24.994l1.26 6.221h-25.204z"/><path fill="#8982bc" d="M778.981 888.248c0 .666-4.411 1.777-10.292 2.666-5.671.889-10.501 1.111-10.501.444 0-.666 4.41-1.777 10.291-2.666 5.671-.666 10.292-.889 10.502-.444m2.101-13.997c0 .666-4.41 1.777-10.291 2.666-5.671.889-10.502 1.111-10.502.444 0-.666 4.411-1.777 10.292-2.666 5.671-.889 10.501-1.111 10.501-.444m2.313-16.218c0 .667-4.411 1.777-10.292 2.666-5.671.889-10.501 1.111-10.501.445 0-.667 4.41-1.778 10.291-2.667 5.671-.888 10.502-1.11 10.502-.444m2.727-16.22c0 .667-4.411 1.778-10.292 2.666-5.671.889-10.502 1.111-10.502.445 0-.667 4.411-1.778 10.292-2.666 5.671-.889 10.292-1.111 10.502-.445m1.89-14.441c0 .666-4.411 1.777-10.291 2.666-5.671.889-10.502 1.111-10.502.444 0-.666 4.41-1.777 10.291-2.666 5.671-.888 10.292-1.111 10.502-.444m3.367-14.663c0 .666-4.41 1.777-10.291 2.666-5.671.889-10.502 1.111-10.502.444 0-.666 4.411-1.777 10.292-2.666s10.501-1.111 10.501-.444m2.305-15.774c0 .667-4.411 1.778-10.292 2.666-5.671.889-10.501 1.111-10.501.445 0-.667 4.41-1.778 10.291-2.666 5.671-.889 10.502-1.111 10.502-.445m2.73-17.33c0 .667-4.41 1.778-10.291 2.666-5.671.889-10.502 1.111-10.502.445 0-.667 4.411-1.778 10.292-2.666 5.671-.889 10.501-1.111 10.501-.445m3.575-19.329c0 .667-4.411 1.778-10.292 2.666-5.671.889-10.502 1.111-10.502.445 0-.667 4.411-1.778 10.292-2.666 5.671-.889 10.292-1.111 10.502-.445"/><path fill="#f7d3a9" d="M112.963 738.726s-3.361 10.442-1.05 17.995 4.62 4.888 4.62 4.888-1.68-2.888-1.26-7.109c.42-4.222 1.26-5.555 1.26-5.555l1.891 8.887s.63-1.777 1.26-4.443-1.26-7.554-.84-10.22c.42-2.444 1.26-5.332 1.26-5.332zm136.943-138.192.63-3.999s-3.781-8.887-2.731-10.664c1.261-2 5.041-5.555 5.041-5.555l2.311.445s4.2 5.776 4.62 7.776-2.1 8.887-3.78 14.219z"/><path fill="#7fbbef" d="m250.957 576.095 2.1 18.218 2.311-.444-2.311-17.996-1.26-3.11z"/><path fill="#f7d3a9" d="m250.324 582.76 2.521-2.444s1.26 2.666-1.471 5.555zm-57.546 302.597.21 6.666-4.411.666-.21-7.332z"/><path fill="#3f327a" d="M188.576 892.689s18.903-3.554 21.634-1.11c2.73 2.443-22.054 4.665-22.054 4.665z"/><path fill="#f7d3a9" d="m126.824 861.808-5.251 3.777-2.94-3.777 5.881-3.999z"/><path fill="#3f327a" d="M118.632 861.808s12.602 15.107 12.182 19.106c-.63 3.777-15.123-17.551-15.123-17.551z"/><path fill="#624fb5" d="M200.337 719.396s15.752 15.329 16.172 72.65c.21 57.32-18.693 95.311-18.693 95.311h-13.232s21.844-71.983-2.73-119.528c0 0-8.192 55.543-51.669 97.978l-10.501-11.775s32.135-42.657 32.345-95.756c0-10.443 1.68-15.997-1.68-27.772z"/><path fill="#fe9887" d="M191.308 654.967s41.377-11.775 51.878-42.435l5.881-13.997 7.982 2.888s-2.101 56.21-53.349 71.54l-.84 3.332c-3.571 14.664-3.781 30.215-.42 44.879l5.251 11.331-55.239 13.108s-6.932-28.66-.421-58.876c0 0-11.971-2.888-32.135 56.876l-7.771-1.555s11.132-80.204 51.248-91.313z"/><path fill="#f7d3a9" d="m192.149 622.085 3.15 15.33c.63 3.332-1.47 6.887-4.62 7.554l-1.891.444-.63 10.664-14.072-1.111 2.1-30.215z"/><path fill="#353e70" d="M180.807 646.524s5.671-2.666 5.881-7.11c0 0-7.351-4.887-4.83-6.887s6.511 2.888 6.511 2.888-2.101-6.887-1.261-8.664c0 0 10.292.666 9.032-5.777 0 0-2.731-2.888-9.242-3.777s-10.921 10.442-10.921 10.442z"/><path fill="#353e70" d="M185.219 617.863c-1.47-1.333-3.57-1.777-5.461-1.777-4.83 0-9.871 2.444-12.812 6.443-3.15 3.999-4.41 9.553-3.36 14.663q.315 1.667 1.26 3.333c1.68 2.666 4.621 3.777 7.351 4.665 2.521.889 6.721 2.444 8.822.889 0 0-3.151-10.664-1.261-17.107 1.891-6.221 5.461-11.109 5.461-11.109"/><path fill="#353e70" d="M164.844 629.194c-3.78-3.111-10.081-2.222-12.812 1.777-1.89 2.666-2.31 6.443-4.831 8.442-2.94 2.444-7.141 1.333-10.711.889-6.511-.444-13.443 2.444-17.013 8.221-3.571 5.776-3.151 14.219 1.68 18.884 3.151 3.11 7.771 4.221 11.972 3.777 4.201-.222 8.401-1.999 12.392-3.555 5.671-2.444 11.762-6.22 13.652-12.441 1.261-4.222.21-9.109.84-13.553.211-1.333.631-2.888 1.681-3.332.84-.445 2.1 0 2.94 0 2.521-.223 3.991-3.333 3.151-5.777s-3.151-3.999-5.461-4.665"/><path fill="#624fb5" d="M171.773 651.855c-3.571 2.444-7.141 4.888-10.082 8.221-2.94 3.332-5.25 7.331-5.461 11.997 0 1.111 0 2.444.841 3.11.42.445 1.05.667 1.47.889 4.411 1.333 8.821-1.555 12.602-4.221 6.301-4.444 12.812-8.887 17.643-15.108.42-.444.63-1.111.42-1.555-.21-.222-.42-.444-.84-.666-4.201-1.556-11.972-1.334-16.593-2.667"/><path fill="#ce6c5f" d="M189.626 657.41s-.21.223-.42.667c-.211.444-.631 1.111-1.261 1.777-.21.445-.63.889-.84 1.333-.42.445-.84.889-1.26 1.556-.42.444-.84 1.11-1.47 1.777-.42.666-1.05 1.111-1.681 1.777-2.31 2.444-5.25 5.332-9.241 7.776-1.89 1.333-3.991 2.222-6.301 3.111-2.31.888-4.831 1.555-7.351 1.555h-3.781q-.945 0-1.89-.667c-.63-.444-1.05-.888-1.26-1.555-.42-1.333-.21-2.666.21-3.999.42-1.111.63-2.444 1.05-3.333.84-2.221 2.31-3.999 3.57-5.554 1.261-1.555 2.521-2.888 3.781-4.221a109 109 0 0 1 5.881-5.777c.63-.666 1.26-1.11 1.68-1.555.42-.222.63-.444.63-.444s-.21.222-.42.666l-1.47 1.556c-1.26 1.333-3.361 3.332-5.671 5.776-1.26 1.333-2.31 2.666-3.57 4.221-1.261 1.555-2.521 3.333-3.361 5.555-.42 1.11-.63 2.221-1.05 3.332s-.63 2.444-.21 3.333c.42 1.111 1.47 1.555 2.52 1.777q1.89.333 3.781 0c2.52-.222 4.831-.889 7.141-1.555 2.31-.889 4.201-2 6.091-3.111 3.781-2.443 6.721-5.11 9.031-7.553l1.681-1.778c.42-.666 1.05-1.111 1.47-1.777.42-.444.84-1.111 1.26-1.555.42-.445.63-.889 1.05-1.333.63-.667 1.051-1.333 1.261-1.778.21.223.21 0 .42 0"/><path fill="#ce6c5f" d="M189.625 661.63s-.63.444-1.891 1.555c-1.05 1.111-2.52 2.666-3.99 5.11-1.26 2.444-2.311 5.554-3.571 9.109-.63 1.778-1.26 3.555-2.1 5.554-.84 1.778-2.1 3.777-3.571 5.333-1.68 1.777-3.78 2.888-5.671 3.554-1.05.445-1.89.667-2.94.889s-2.1.222-3.151-.444c-1.05-.445-1.68-1.333-1.89-2.444-.42-.889-.42-2-.42-2.889.21-1.777.84-3.332 1.26-4.665l.42.222c-.42.667-1.26.667-1.68.667-.63 0-1.05-.445-1.47-.889-.63-.889-.63-1.777-.42-2.444q.315-1 .63-1.333l.42-.444s-.42.666-.84 1.777c-.21.666 0 1.555.42 2.222q.315.333 1.26.666c.42 0 1.05 0 1.26-.444l1.05-1.333-.63 1.555c-.42 1.333-1.05 2.888-1.26 4.443 0 .889 0 1.778.42 2.444.42.889.84 1.556 1.68 2 .841.444 1.681.444 2.731.222.84-.222 1.89-.444 2.94-.889a13.7 13.7 0 0 0 5.461-3.554c1.47-1.556 2.521-3.333 3.361-5.11s1.47-3.555 2.31-5.332c1.26-3.555 2.311-6.666 3.781-9.332 1.47-2.444 2.94-4.221 4.2-5.11.21-.222.631-.444.841-.666s.42-.222.63-.444c.21.444.42.444.42.444"/><path fill="#8982bc" d="M166.524 693.402s-4.2 13.33 6.091 5.998c10.502-7.553 11.972-34.88 11.972-34.88s-7.141 27.327-18.063 28.882" opacity=".18"/><path fill="#453c87" d="M206.85 821.817c0 .222-2.731.222-6.091.666s-5.881 1.111-6.091.889c0-.222 2.52-1.333 5.881-1.778 3.57-.444 6.301 0 6.301.223m1.678-4.667s-.63.666-1.68 1.333-2.941 1.333-4.831 1.555-3.781 0-5.041-.222c-1.26-.444-1.89-.666-1.89-.889s3.15.889 6.931.223c3.781-.445 6.511-2.222 6.511-2m-49.358-5.775c0 .222-2.31-.889-4.2-3.555-1.89-2.444-2.311-5.11-2.101-5.11.211 0 1.051 2.222 2.731 4.666 1.68 2.221 3.57 3.777 3.57 3.999m-1.263 1.333c-.21 0-.21-.444-.84-.888-.63-.445-1.471-1.111-2.521-1.556-2.1-1.333-3.78-2.221-3.78-2.444s1.89.445 3.99 1.778q1.576 1 2.521 1.999c.84.445.84 1.111.63 1.111m35.92-40.658s-1.26.223-3.361-.444c-2.1-.666-4.621-2.222-7.561-3.555-2.941-1.555-5.461-2.888-7.351-3.999-1.891-1.111-2.941-1.777-2.941-1.999 0 0 1.26.444 3.151 1.333 1.89.888 4.621 2.221 7.351 3.777 2.94 1.555 5.461 3.11 7.351 3.777 2.101.888 3.361.888 3.361 1.11"/><path fill="#8982bc" d="M421.292 324.598c-2.94 2.444-3.78 7.332-2.73 11.109 1.05 3.999 3.361 7.332 5.671 10.442 5.881 7.998 12.182 15.996 18.903 23.55 3.151 3.777 6.511 7.332 9.031 11.553 10.292 16.885 6.932 39.102 8.822 59.098.42 4.443 2.52 10.22 6.721 9.997 1.68 0 2.94-.888 4.411-1.999 8.821-6.443 14.282-17.552 14.492-28.882 0-3.333-.21-6.666.63-9.776 1.47-4.443 5.041-7.332 7.982-10.664 6.09-7.11 8.821-16.441 11.551-25.55 2.941-10.442 5.881-21.995 1.261-31.77-3.361-6.888-10.082-11.109-16.803-13.997-22.054-9.331-46.628-5.777-70.152-2.222" opacity=".18"/><path fill="#f7d3a9" d="m479.683 444.572.21 6.665-4.62.667-.211-7.332z"/><path fill="#3f327a" d="M475.272 451.904s18.903-3.555 21.633-1.111-22.053 4.666-22.053 4.666z"/><path fill="#f7d3a9" d="m493.332 408.134-3.151 5.777-4.201-2 3.571-6.221z"/><path fill="#3f327a" d="M485.979 411.91s17.643 7.776 18.693 11.553-20.793-8.887-20.793-8.887z"/><path fill="#fe9887" d="M485.142 247.06c7.351-4.887-2.101-9.109 6.721-8.442 1.89 0 4.2.222 5.671-.889 2.1-1.555 2.52-4.665 1.89-7.331-1.26-6.443-6.931-11.331-13.232-11.553-8.402-.223-15.543 7.331-23.944 6.887-3.151-.222-6.091-1.555-9.242-2.444-8.821-2.888-20.373-1.333-24.784 7.332-1.26 2.221-1.68 4.888-3.15 7.109-3.781 6.443-11.762 7.554-17.643 11.553-6.511 4.444-10.502 13.108-9.662 21.329.42 3.332 1.471 7.109 4.201 9.109 0 0 9.032 12.219 29.405 0 20.373-12.22 53.769-32.66 53.769-32.66"/><path fill="#624fb5" d="M468.129 269.944c3.15-3.777 51.668 52.433 62.17 58.431 10.292 5.999 7.981 0 7.981 0l-20.793-24.439-39.907-47.544z"/><path fill="#c4b9ff" d="M474.222 248.838c-8.821-4.444-19.323-3.333-26.884 3.11l-.21.222c-13.443 11.331-30.245 33.548-25.205 71.539l47.258-5.998s-6.721-8.443 1.89-33.548c4.621-13.775 8.822-26.661 8.822-26.661z"/><path fill="#624fb5" d="M449.018 266.833s3.991 44.879 19.953 50.878c15.963 5.998 44.738 5.998 44.738 5.998s2.31-3.11-28.355-10.886c-1.26-.222-2.52-.667-3.991-.889 0 0-17.433-10.664-16.382-43.101 0-1.555 0-2.888-.21-4.444-.631-4.665-2.941-14.441-9.242-13.552-8.401 1.111-6.511 15.996-6.511 15.996"/><path fill="#ffc359" d="M421.922 323.71s35.916 45.767 43.267 59.32c7.141 13.552 3.991 61.763 6.301 63.096s11.552 0 11.552 0l.63-36.436.42-19.107a73.6 73.6 0 0 0-4.411-26.882l-9.661-27.105s39.696 2.666 32.765 23.772c-8.821 26.438-16.803 46.656-16.803 46.656l7.982 3.333s37.596-49.989 28.774-71.984-53.558-20.218-53.558-20.218z"/><path fill="#f7d3a9" d="m499.636 236.619-6.301 14.219c-1.471 3.111-5.041 4.444-7.982 2.888l-1.68-.888-2.94 3.555c-2.101 2.443-5.671 2.666-7.982.444l-1.47-1.333c-2.73-2.666-2.94-6.887-.63-9.776l14.702-17.551z"/><path fill="#fe9887" d="M476.531 248.838s5.881 1.556 8.612-1.777c0 0-3.151-8.442 0-8.665 3.15 0 3.36 6.443 3.36 6.443s2.311-6.887 3.991-7.554c0 0 7.771 7.332 10.502 1.334 0 0-.421-4-5.041-8.887-4.621-4.888-13.862-2.222-13.862-2.222z"/><path fill="#624fb5" d="M479.683 257.281s0 .222-.42.666-1.05.667-1.89.889c-.84 0-1.89.222-3.15 0q-.946 0-1.891-.666a5.1 5.1 0 0 1-1.47-1.556c-1.68-2.443-2.1-5.11-2.1-6.887s.42-2.888.63-2.888 0 1.111 0 2.888.63 4.221 2.1 6.443l1.26 1.333c.42.222 1.051.444 1.471.444 1.05.223 2.1 0 2.94 0s1.47-.222 1.89-.444c.42 0 .63-.222.63-.222m-24.577 4.887s-.42.889-1.26 2.222c-.84 1.555-1.89 3.554-3.361 5.998-2.73 5.11-6.721 12.22-9.661 20.44-1.47 4.221-2.521 8.22-3.151 12.22a63 63 0 0 0-.84 10.219c0 2.889.21 5.333.42 6.888s.42 2.444.42 2.444 0-.223-.21-.667c0-.444-.21-1.111-.42-1.777-.42-1.555-.63-3.999-.84-6.888 0-2.888 0-6.443.63-10.442.63-3.777 1.681-7.998 3.151-12.219 3.15-8.443 7.141-15.552 10.081-20.44 1.471-2.444 2.731-4.443 3.571-5.776.84-1.555 1.26-2.222 1.47-2.222"/><path fill="#fe9887" d="M467.078 245.283s4.411 3.332 9.452 3.554c5.04.222 8.191-22.217 8.191-22.217z"/><path fill="#dba246" d="M446.919 325.486s.42.889.21 2.444c0 1.555-.42 3.555-1.26 5.555s-2.1 3.776-3.151 4.665-1.89 1.333-1.89 1.333.63-.666 1.47-1.777 1.891-2.666 2.731-4.666a20.8 20.8 0 0 0 1.47-5.332c.21-1.333.21-2.222.42-2.222m.628 17.776s.21.222.63.888c.42.667 1.05 1.333 1.89 2.444a902 902 0 0 1 6.931 9.331c2.731 4 6.091 9.11 8.822 14.886 1.47 2.888 2.73 6.221 3.78 9.553a91 91 0 0 1 2.521 10.887c2.31 15.107 2.94 29.104 3.15 39.102 0 5.11 0 9.109-.21 11.997 0 1.333-.21 2.444-.21 3.333 0 .666 0 1.111-.21 1.111v-4.444c0-2.888 0-6.887-.21-11.775-.21-9.998-1.05-23.772-3.36-38.88-.63-3.777-1.261-7.332-2.311-10.886-1.05-3.333-2.31-6.665-3.78-9.554-2.731-5.998-5.881-10.886-8.612-14.885s-5.041-7.332-6.721-9.554q-1.26-1.665-1.89-2.666c0-.444-.21-.666-.21-.888m21.001-12.22c.21 0 .42 1.333 1.05 2.666.42 1.555 1.05 2.666.84 2.666-.21.222-1.05-.889-1.68-2.444-.42-1.555-.42-2.888-.21-2.888m-1.886-5.332c-.21.222-1.47-1.111-3.151-2.666s-3.15-2.666-2.94-2.888 1.68.666 3.57 2.222c1.681 1.555 2.731 3.11 2.521 3.332m8.393 8.886s.21-.223.84-.445 1.47-.666 2.73-1.333c2.521-.888 6.301-1.777 11.132-1.555 2.31.222 5.041.667 7.561 1.555 2.731.889 5.461 2.444 7.772 4.888 1.05 1.333 2.1 2.666 2.73 4.443.63 1.556.84 3.555 1.05 5.333.21 1.777.21 3.554.21 5.554 0 1.777 0 3.777-.21 5.776-.42 3.777-1.26 7.554-2.52 10.887-1.26 3.332-2.731 6.443-3.991 9.553q-4.095 8.999-6.931 15.996c-2.1 4.444-3.571 8.221-4.831 10.665-.63 1.333-1.26 2.221-1.47 2.666-.42.666-.63.888-.63.888l.42-.888c.42-.667.84-1.556 1.47-2.889 1.26-2.443 2.731-6.22 4.621-10.886q2.835-6.999 6.931-15.996c1.26-3.111 2.731-6.221 3.991-9.554q1.89-4.998 2.52-10.664c.21-1.777.21-3.777.21-5.554s0-3.777-.21-5.332c-.21-1.778-.42-3.555-1.05-5.11s-1.47-2.888-2.52-4.221c-2.101-2.222-4.831-3.777-7.352-4.666s-5.04-1.333-7.561-1.555c-4.621-.222-8.401.444-10.922 1.333-2.73.444-3.99 1.333-3.99 1.111"/><path fill="#8982bc" d="M464.555 540.106c.21-1.111.84-2 1.68-2.444 1.26-.667 3.15-.667 4.411 0 2.1 1.333 3.15 4.221 3.78 6.665.63 2.666 1.05 5.332 2.521 7.554.42.666 1.05 1.333 1.89 1.555 1.47.222 2.52-.889 3.571-1.999 2.73-3.111 5.881-6.221 9.661-7.332 3.781-1.111 8.612 0 10.712 3.777 1.05 1.999 1.26 4.443 1.47 6.665 1.26 18.44 2.311 36.88 3.571 55.321.63 8.664 1.05 17.329-1.26 25.549-2.101 7.332-22.264 28.883-31.926 28.883" opacity=".18"/><path fill="#f7d3a9" d="m465.821 725.842-4.62 99.31-13.442 66.208-6.091-1.778 5.25-66.429-10.501-68.207-9.452 63.763-20.793 72.873-5.461.222 9.872-72.65-2.731-88.424z"/><path fill="#3f327a" d="m485.776 559.436-6.091 50.877-29.825 30.66-26.884.444-9.662 17.996 3.991 16.219c2.94 11.775 1.89 24.439-2.731 35.547l-6.301 19.995 58.6 7.11c1.89-47.1 1.05-50.877-6.301-77.76l34.656-47.322v-55.321z"/><path fill="#3f327a" d="M460.988 557.658c-2.941 1.777-21.634 52.432-21.634 52.432l1.051 32.437-17.643 3.333v-37.103l30.665-57.098z"/><path fill="#f7d3a9" d="m445.656 609.646 5.461 14.663c1.26 3.332-.42 6.887-3.361 8.22l-1.89.667.84 10.664-14.072 1.333-2.521-30.215z"/><path fill="#ffc359" d="M437.882 637.417s5.461-4.888 5.041-9.331c0 0-7.981-3.555-5.881-5.999 2.101-2.444 6.721 1.777 6.721 1.777s-3.15-6.443-2.52-8.22c0 0 10.292-.889 8.191-7.332 0 0-3.15-2.444-9.661-2.222-6.511.223-9.242 12.22-9.242 12.22z"/><path fill="#ffc359" d="M440.824 606.757c-6.091-1.777-13.022 0-17.853 4.222-4.831 4.221-7.562 11.108-6.931 17.773.42 4.666 2.1 9.554.42 13.775-.84 2.222-2.521 3.999-4.201 5.554-4.831 4.666-10.082 9.331-13.862 15.108-3.781 5.776-6.301 12.886-5.251 19.773.42 2.888 1.47 5.777 3.36 8.22 1.051 1.111 2.101 2.222 2.941 3.555 2.94 4.666 1.26 11.109 3.15 16.441 2.311 6.665 9.872 9.775 16.593 10.442 9.242.889 19.323-1.111 26.254-7.776s9.452-18.662 4.201-26.883c-2.52-3.999-7.141-7.554-6.721-12.441.21-3.111 2.52-5.332 3.57-8.221 2.521-5.554.841-12.664-3.78-16.44-1.68-1.334-3.781-2.222-5.251-3.777s-2.52-3.999-1.68-5.999c.63-1.555 2.31-2.444 3.15-3.999 1.05-2.222-.21-5.11-1.89-7.11s-3.571-3.999-3.781-6.443c-.21-1.999.63-3.777 1.681-5.554 1.68-3.332 3.36-6.887 5.04-10.22"/><path fill="#624fb5" d="m407.849 730.729-4.201 34.658 31.506 5.332 1.47-13.774 1.68 13.552h31.505l-3.36-32.659z"/><path fill="#3f327a" d="M401.339 888.691s19.113 0 21.424 2.889c2.31 3.11-22.474.444-22.474.444zm38.854 1.557s18.904-3.555 21.634-1.111-22.054 4.666-22.054 4.666z"/><path fill="#453c87" d="M448.804 760.943c-.21.223-4.621-1.999-10.502-4.443-5.67-2.444-10.501-3.999-10.501-4.221s1.26.222 3.15.666c1.891.667 4.621 1.556 7.561 2.666 2.941 1.111 5.461 2.444 7.352 3.555 1.89 1.111 2.94 1.777 2.94 1.777m-13.021 6.221c0 .223-1.891-.222-4.621-.888-2.94-.667-6.931-1.333-11.342-2-4.411-.666-8.611-1.111-11.552-1.555s-4.83-.667-4.83-.889 1.89 0 4.83.222c2.941.223 7.141.667 11.552 1.334 4.411.666 8.612 1.555 11.342 2.221 2.94.667 4.621 1.333 4.621 1.555m33.187-1.555c0 .222-1.68.222-4.621.444-2.94.222-6.931.445-11.132.667-4.41.222-8.401.666-11.131.888-2.731.223-4.621.223-4.621.223 0-.223 1.68-.445 4.621-.889 2.94-.444 6.931-.889 11.131-1.111 4.411-.222 8.402-.444 11.342-.444 2.521 0 4.411 0 4.411.222m-1.264-19.55s-.63.444-1.891.888c-1.26.223-3.15.223-5.04-.666s-3.151-2.444-3.781-3.555-.84-1.999-.63-1.999.42.666 1.05 1.777 1.89 2.222 3.571 3.11c1.68.889 3.36.889 4.62.889 1.261-.444 1.891-.666 2.101-.444"/><path fill="#453c87" d="M465.817 771.163c-.21 0-1.05-5.332-1.68-11.997s-1.05-11.997-.84-11.997 1.05 5.332 1.68 11.997 1.05 11.997.84 11.997"/><path fill="#d3ab84" d="M411 821.153c0-.223 1.68.222 3.781.888 2.1.667 3.78 1.111 3.78 1.333s-1.89.222-3.99-.444c-2.101-.667-3.571-1.555-3.571-1.777m8.19-.444c0 .222-1.89.888-4.2.666-2.311 0-4.201-.666-4.201-.888 0-.223 1.89 0 4.201.222 2.31 0 3.99-.222 4.2 0m37.175 1.109c0 .222-1.68.888-3.781 1.111-2.1.444-3.99.222-3.99 0 0-.223 1.68-.667 3.78-.889 2.101-.222 3.781-.445 3.991-.222"/><path fill="#d3ab84" d="M454.267 820.041c0 .222-1.05.889-2.31 1.555-1.47.667-2.52 1.111-2.73.889 0-.222.84-.889 2.31-1.555 1.47-.889 2.52-1.111 2.73-.889"/><path fill="#f7d3a9" d="M459.306 557.657s8.191-4.666 8.191-5.332c-.42-1.778-4.831.444-4.831.444s6.721-7.332 5.671-8.443c-.63-.666-4.831 3.111-4.831 3.111s2.521-4.444 1.681-5.332c-.84-.889-4.621 4.221-4.621 4.221s1.47-3.333.63-4.221c-.63-.667-7.981 12.886-7.981 12.886zm27.729 1.778s-3.571-9.109-2.941-9.554c1.26-1.11 3.361 3.555 3.361 3.555s-.63-10.22.84-10.442c.84 0 1.68 5.554 1.68 5.554s.63-5.11 1.89-5.332c1.261-.222 1.051 6.443 1.051 6.443s.84-3.555 2.1-3.555c.84 0-1.68 15.33-1.68 15.33z"/><path fill="#f4f3ff" d="m301.785 773.386 21.634-55.543s59.859 21.328 59.229 22.661-26.044 56.432-26.044 56.432z"/><path fill="#453c87" d="M333.921 726.952s0 .222-.21.445c-.21.222-.42.666-.63 1.11-.63.889-1.26 2.222-2.1 3.777-1.89 3.333-4.201 7.776-6.931 12.886-2.521 5.11-4.621 9.776-6.091 13.331-.63 1.777-1.26 3.11-1.68 3.999-.21.444-.421.888-.421 1.11.211-.222.211-.666.421-1.11.42-.889.84-2.444 1.68-4.222 1.47-3.554 3.57-8.22 6.091-13.33 2.52-5.11 5.041-9.553 6.931-12.886 1.05-1.555 1.68-2.888 2.31-3.777.21-.444.42-.666.63-1.111-.21-.222 0-.222 0-.222"/><path fill="#453c87" d="M362.696 742.726s-.21 0-.42-.222c-.211-.222-.631-.222-1.051-.444-.84-.445-2.1-.889-3.78-1.778-3.151-1.333-7.351-3.554-12.182-5.776-4.621-2.444-8.822-4.443-11.972-6.221a69 69 0 0 0-3.571-1.999c-.42-.223-.63-.445-1.05-.445.21.222.63.222 1.05.445.84.444 2.101 1.111 3.571 1.777 3.15 1.555 7.351 3.777 11.972 5.999s8.821 4.443 11.972 5.998c1.47.667 2.73 1.333 3.57 1.778.42.222.63.444 1.05.444.631.222.841.444.841.444m3.566-5.777s0 .222-.21.445c-.21.444-.42.888-.63 1.555-.63 1.333-1.47 3.11-2.73 5.332a798 798 0 0 0-8.822 17.551c-3.36 6.888-6.091 13.331-7.981 17.996-1.05 2.222-1.68 4.222-2.311 5.555-.21.666-.42 1.111-.63 1.555l-.21.444s0-.222.21-.444c.21-.444.21-.889.63-1.555.42-1.333 1.261-3.333 2.101-5.555 1.89-4.665 4.621-11.108 7.981-17.996a803 803 0 0 1 8.821-17.551c1.261-2.222 2.101-3.999 2.731-5.332.42-.667.63-1.111.84-1.333.21-.445.21-.667.21-.667"/><path fill="#453c87" d="M364.794 746.947s-7.561-3.332-16.802-7.775c-9.242-4.444-16.803-7.999-16.593-8.221 0 0 7.561 3.333 16.803 7.776a787 787 0 0 1 16.592 8.22m-26.887-6.665s-1.47-.889-3.361-1.778c-1.89-.888-3.57-1.333-3.36-1.555 0 0 1.68.222 3.57 1.111 1.891 1.111 3.151 2.222 3.151 2.222m-1.257 1.111s-1.47-.889-3.361-1.778c-1.89-.888-3.57-1.111-3.57-1.333 0 0 1.68 0 3.78.889a11.6 11.6 0 0 1 3.151 2.222m-.423 2s-1.47-.889-3.36-1.778c-1.891-.888-3.571-1.555-3.361-1.777 0 0 1.68.444 3.571 1.333 1.89 1.111 3.15 2.222 3.15 2.222m6.932-2.888s.21-.223.42-.223.84-.222 1.261 0c.63.223 1.26.667 1.26 1.556 0 .444 0 .888-.42 1.333-.21.444-.63.666-1.051.888s-.84.222-1.26.222-.84-.444-1.05-.666c-.63-.667-.63-1.555-.42-2 .63-.888 1.05-1.11 1.26-1.11.42-.223.63-.223.42-.223.21.223 0 .223-.42.223-.21 0-.42.444-.63.888-.21.445 0 1.111.42 1.555.42.445 1.26.667 1.89.445.631-.222 1.261-.889 1.261-1.555 0-.667-.63-1.111-1.05-1.333a1.27 1.27 0 0 0-1.261 0zm11.554 6.22s-1.891-.444-3.991-1.333a26 26 0 0 1-3.781-1.999s1.681.666 3.781 1.777c2.31.666 3.991 1.555 3.991 1.555m-5.041-.444c0 .223-.84 0-1.89-.444s-1.68-1.111-1.68-1.333l1.68.889c1.05.444 1.89.666 1.89.888m-13.02 8.441h.21c.21 0 .42.223.841.223.63.222 1.68.666 2.94 1.11 2.52 1.111 6.091 2.444 10.082 4.222h-.21c1.68-2.889 3.36-6.221 5.25-9.554l.211-.222.21.222c-5.251-1.999-10.082-3.999-14.073-5.332h.21c-3.15 5.332-5.041 8.221-5.671 9.331 0 0 .42-.888 1.471-2.666.84-1.555 2.31-3.999 3.99-6.665v-.222h.21c3.991 1.555 8.822 3.332 14.073 5.332h.21l-.21.222-.211.222c-1.89 3.333-3.78 6.666-5.25 9.554v.222h-.21c-4.201-1.777-7.562-3.333-10.292-4.443-1.26-.445-2.1-.889-2.941-1.333-.21-.223-.63-.223-.84-.445zm-3.364 3.113s.21-.223.42-.223.84-.222 1.26 0c.631.223 1.261.667 1.261 1.556 0 .444 0 .888-.42 1.333-.21.444-.63.666-1.051.888-.42.223-.84.223-1.26.223s-.84-.445-1.05-.667c-.63-.666-.63-1.555-.42-2 .63-.888 1.05-1.333 1.26-1.11-.21 0-.42.444-.63.888-.21.445 0 1.111.42 1.556.42.444 1.26.666 1.89.444.631-.222 1.261-.889 1.261-1.555 0-.667-.63-1.111-1.051-1.333a1.27 1.27 0 0 0-1.26 0zm11.554 6.219s-1.891-.444-3.991-1.333a26 26 0 0 1-3.781-1.999s1.681.666 3.991 1.777c2.1.667 3.781 1.333 3.781 1.555m-5.037-.667c0 .222-.84 0-1.89-.445-1.051-.444-1.681-1.11-1.681-1.333l1.681.889c1.26.444 1.89.889 1.89.889m-13.028 8.443h.21c.21 0 .42.222.841.222.63.222 1.68.666 2.94 1.111 2.52 1.111 6.091 2.444 10.082 4.221h-.21c1.68-2.888 3.36-6.221 5.25-9.553l.211-.222.21.222c-5.251-2-10.082-3.999-14.073-5.332h.21c-3.15 5.554-4.831 8.22-5.671 9.331 0 0 .42-.889 1.471-2.666.84-1.555 2.31-3.999 3.99-6.665v-.223h.21c3.991 1.556 8.822 3.333 14.073 5.333h.21l-.21.222-.21.222c-1.891 3.332-3.781 6.665-5.251 9.553v.222h-.21c-4.201-1.777-7.562-3.332-10.292-4.443-1.26-.444-2.1-.889-2.941-1.333-.21-.222-.63-.222-.84-.444.21.444 0 .222 0 .222m43.687-30.881s-4.62 9.998-10.291 21.995a2608 2608 0 0 1-10.712 21.995s4.621-9.998 10.292-21.995a2647 2647 0 0 1 10.711-21.995"/><path fill="#453c87" d="M373.197 750.28c0 .223-2.521-.666-5.461-1.777s-5.461-2-5.251-2.222c0-.222 2.52.667 5.461 1.778a74 74 0 0 1 5.251 2.221"/><path fill="#453c87" d="M368.575 753.391s-1.05-1.778-1.68-4.221-1.05-4.444-.84-4.666c.21 0 .63 1.999 1.26 4.443s1.26 4.222 1.26 4.444m-3.148 6.665c-.21 0-.21-.889 0-2 0-1.111.21-1.999.42-1.999s.21.888 0 1.999c0 1.111-.21 2-.42 2"/><path fill="#453c87" d="M368.158 758.055c0 .222-1.05 0-2.101.222-1.05.223-2.1.445-2.1.223 0 0 .84-.667 2.1-.667s2.101.222 2.101.222m-43.271-29.771s1.47.667 3.361 1.777c1.89.889 3.36 1.556 3.36 1.778 0 0-1.68-.445-3.57-1.333-1.891-1.111-3.361-2.222-3.151-2.222"/><path fill="#453c87" d="M331.192 721.397s-1.261 2.667-2.941 5.999c-1.68 3.111-3.15 5.777-3.36 5.777 0 0 1.26-2.666 2.94-5.999 1.89-3.333 3.361-5.777 3.361-5.777m-5.252 5.999c-.21 0-.21-.667-.42-1.556v-1.555c.21 0 .21.667.42 1.555.21.889 0 1.556 0 1.556"/><path fill="#453c87" d="M328.672 725.618c0 .223-1.051.445-2.311.667s-2.31.444-2.31.222 1.05-.444 2.31-.666 2.311-.445 2.311-.223"/><path fill="#f7d3a9" d="M361.641 770.943s2.73-9.554 3.15-9.554c1.68 0 .63 5.11.63 5.11s5.461-8.442 6.721-7.554c.63.445-1.89 5.555-1.89 5.555s3.571-3.555 4.621-2.889-2.941 5.555-2.941 5.555 2.731-2.222 3.781-1.555c.63.444-10.292 10.886-10.292 10.886z"/><path fill="#f7d3a9" d="M361.641 770.943s2.73-9.554 3.15-9.554c1.68 0 .63 5.11.63 5.11s5.461-8.442 6.721-7.554c.63.445-1.89 5.555-1.89 5.555s3.571-3.555 4.621-2.889-2.941 5.555-2.941 5.555 2.731-2.222 3.781-1.555c.63.444-10.292 10.886-10.292 10.886zm-57.337 213.284.21 6.665-4.62.888-.21-7.331z"/><path fill="#3f327a" d="M299.893 991.781s18.903-3.555 21.633-1.111-22.053 4.666-22.053 4.666z"/><path fill="#f7d3a9" d="m238.348 960.899-5.251 3.777-2.941-3.777 5.881-4z"/><path fill="#3f327a" d="M230.159 960.898s12.602 15.108 12.182 19.107c-.63 3.777-15.122-17.551-15.122-17.551zm81.494-142.411s15.753 15.552 16.173 72.65c.21 57.321-18.693 95.312-18.693 95.312h-13.232s21.843-71.984-2.731-119.528c0 0-8.191 55.543-51.668 97.977L231 953.123s32.135-42.657 32.345-95.756c0-10.442 1.681-15.996-1.68-27.771z"/><path fill="#232049" d="M318.373 920.906c0 .222-2.73.222-6.091.667-3.36.444-5.881 1.111-6.091.888 0-.222 2.521-1.333 5.881-1.777 3.571-.666 6.301 0 6.301.222m1.682-4.663s-.63.666-1.68 1.333-2.94 1.333-4.831 1.555c-1.89.222-3.78 0-5.04-.222-1.261-.444-1.891-.667-1.891-.889s3.151.889 6.931.222c3.571-.444 6.301-2.221 6.511-1.999m-49.568-5.777c0 .222-2.31-.889-4.201-3.555-1.89-2.444-2.31-5.11-2.1-5.11s1.05 2.222 2.73 4.665c1.891 2.222 3.781 3.777 3.571 4m-1.049 1.333c-.21 0-.21-.445-.84-.889-.63-.445-1.47-1.111-2.52-1.778-2.101-1.333-3.781-2.221-3.781-2.443 0-.223 1.89.444 3.991 1.777q1.575 1 2.52 1.999c.63.667.63 1.334.63 1.334m35.916-40.658s-1.26.222-3.36-.444c-2.101-.667-4.621-2.222-7.562-3.555-2.94-1.555-5.461-2.888-7.351-3.999s-2.94-1.777-2.94-1.999c0 0 1.26.444 3.15 1.333 1.89.888 4.621 2.221 7.351 3.777 2.941 1.555 5.461 3.11 7.352 3.776 2.1.889 3.36.889 3.36 1.111"/><path fill="#ffc359" d="m253.051 763.165 9.241 75.761 58.18.889-8.612-57.098s28.775 28.882 41.377 16.885 14.492-23.773 14.492-23.773l-6.931-4.888s-10.291 20.885-19.743 14.442c-10.712-7.332-34.446-37.547-56.709-33.771-14.913 2-28.985-6.665-31.295 11.553"/><path fill="#f7d3a9" d="m287.289 718.065 5.46 14.664c1.261 3.332-.42 6.887-3.36 8.22l-1.89.667.84 10.664-14.073 1.333-2.52-30.216z"/><path fill="#624fb5" d="M279.515 745.837s5.461-4.888 5.041-9.332c0 0-7.981-3.554-5.881-5.998s6.721 1.777 6.721 1.777-3.15-6.443-2.52-8.22c0 0 10.291-.889 8.191-7.332 0 0-3.15-2.444-9.661-2.222-6.512.223-9.242 12.22-9.242 12.22z"/><path fill="#624fb5" d="M282.456 715.177c-6.091-1.777-13.022 0-17.852 4.221-4.831 4.222-7.562 11.109-6.932 17.774.42 4.666 2.101 9.553.42 13.775-.84 2.222-2.52 3.999-4.2 5.554-4.831 4.666-10.082 9.331-13.862 15.108-3.781 5.776-6.302 12.886-5.251 19.773.42 2.888 1.47 5.776 3.36 8.22 1.05 1.111 2.101 2.222 2.941 3.555 2.94 4.666 1.26 11.109 3.15 16.441 2.311 6.665 9.872 9.775 16.593 10.442 9.241.889 19.323-1.111 26.254-7.776s9.452-18.663 4.201-26.883c-2.521-3.999-7.141-7.554-6.721-12.441.21-3.111 2.52-5.333 3.57-8.221 2.521-5.554.84-12.664-3.78-16.441-1.681-1.333-3.781-2.221-5.251-3.777-1.47-1.555-2.521-3.999-1.68-5.998.63-1.555 2.31-2.444 3.15-3.999 1.05-2.222-.21-5.11-1.89-7.11-1.681-1.999-3.571-3.999-3.781-6.443-.21-1.999.63-3.777 1.68-5.554 1.681-3.333 3.361-6.887 5.041-10.22"/><path fill="#c4b9ff" d="M614.947 288.384h198.482s-10.502-57.32-63.011-43.545c0 0-38.856-116.196-77.082 0 0 0-32.555-57.543-58.389-57.987-55.66-.667-72.042 101.532 0 101.532M105.191 183.963h186.72s-9.871-53.987-59.229-40.879c0 0-36.546-109.309-72.462 0 0 0-30.665-54.21-55.029-54.432-52.299-.667-67.631 95.311 0 95.311"/><path fill="#c4b9ff" d="M748.104 136.641h106.697s-5.671-30.882-34.025-23.328c0 0-21.003-62.43-41.377 0 0 0-17.643-30.882-31.505-31.104-29.825-.445-38.436 54.432.21 54.432M38.822 279.053H95.74s-2.94-16.441-18.063-12.442c0 0-11.132-33.325-22.054 0 0 0-9.451-16.44-16.802-16.662-15.963-.223-20.584 29.104 0 29.104m860.09-237.501h56.92s-2.941-16.44-18.063-12.442c0 0-11.132-33.325-22.054 0 0 0-9.452-16.44-16.803-16.662-15.962-.223-20.583 29.104 0 29.104M202.018 54.438h106.698s-5.671-30.882-34.026-23.328c0 0-21.003-62.43-41.377 0 0 0-17.643-30.882-31.505-31.104-29.825-.667-38.436 54.432.21 54.432" opacity=".36"/><path fill="#58bb85" d="M79.356 838.703c-20.583 16.441-53.979 1.555-72.462-15.552-3.15-2.888-5.67-6.887-6.51-11.331-4.202-21.328 27.514-26.438 28.354-45.545.42-8.22-5.461-15.33-9.872-22.217-10.082-15.774-12.812-35.77-10.712-54.654 2.1-18.885 8.822-36.881 16.593-53.988 6.301-13.997 17.853-29.993 32.135-26.438 9.242 2.222 15.123 11.775 17.853 21.551 3.78 13.108 3.15 27.327.63 40.879-1.05 5.999-2.52 12.22-1.05 17.996 3.99 15.108 23.944 18.44 31.085 31.993 7.351 13.774-1.47 30.659-9.451 43.99-6.932 11.33-11.132 18.44-6.721 28.215q1.89 4 5.04 6.665c4.411 4 12.602 16.219-14.912 38.436"/><path fill="#453c87" d="M55.83 891.137c-.21 0-.42-39.769-.42-88.647s.21-88.646.42-88.646.42 39.768.42 88.646-.21 88.647-.42 88.647m-2.726-63.32s-.42-.222-1.26-.889c-.84-.666-2.1-1.777-3.57-2.888-2.941-2.444-6.932-5.999-11.552-9.553a570 570 0 0 0-11.762-9.332c-1.47-1.111-2.73-1.999-3.57-2.888-.841-.666-1.261-1.111-1.261-1.111s.63.222 1.47.889q1.26 1 3.78 2.666a215 215 0 0 1 11.973 9.109c4.62 3.777 8.611 7.11 11.342 9.776 1.47 1.333 2.52 2.444 3.36 3.11s1.26 1.111 1.05 1.111"/><path fill="#453c87" d="M78.515 734.505s-1.26 1.999-3.571 4.888-5.25 6.887-8.821 11.33c-3.361 4.444-6.512 8.443-8.612 11.331-2.31 2.888-3.57 4.666-3.78 4.666 0 0 .21-.445.84-1.333.63-.889 1.47-2 2.52-3.555 2.1-3.11 5.04-7.11 8.401-11.553s6.511-8.442 9.032-11.109a29.6 29.6 0 0 0 2.73-3.332z"/><path stroke="#7972a8" stroke-width=".05" d="M410.445 367.701h112.278v118.766H410.445z"/><path fill="#76cc9b" d="M981.662 841.369c-12.812 10.22-33.395.889-44.947-9.553-2.1-1.778-3.571-4.222-3.991-6.888-2.52-13.108 17.013-16.44 17.643-28.216.21-5.109-3.36-9.331-6.091-13.774-6.091-9.776-7.981-22.217-6.511-33.77 1.26-11.775 5.461-22.884 10.292-33.548 3.99-8.665 10.922-18.44 19.953-16.441 5.671 1.333 9.452 7.332 11.132 13.33 2.31 8.221 1.89 16.885.42 25.328-.63 3.777-1.68 7.554-.63 11.109 2.31 9.331 14.702 11.33 19.323 19.773 4.625 8.665-.84 18.884-5.881 27.327-4.201 7.109-6.931 11.553-4.201 17.551.841 1.556 1.891 2.889 3.151 4.222 2.31 2.222 7.351 9.775-9.662 23.55"/><path fill="#453c87" d="M963.6 892.69c-.21 0-.42-39.768-.42-88.646s.21-88.647.42-88.647.42 39.769.42 88.647-.21 88.646-.42 88.646"/><path fill="#58bb85" d="M945.747 831.593c-20.584 16.441-53.979 1.555-72.462-15.552-3.151-2.888-5.671-6.888-6.511-11.331-4.201-21.328 27.514-26.438 28.354-45.545.42-8.22-5.461-15.33-9.871-22.217-10.082-15.774-12.812-35.77-10.712-54.654 2.1-18.885 8.821-36.881 16.593-53.988 6.301-13.997 17.853-29.993 32.135-26.438 9.241 2.221 15.122 11.775 17.853 21.55 3.78 13.108 3.15 27.327.63 40.88-1.05 5.998-2.521 12.219-1.05 17.996 3.99 15.107 23.943 18.44 31.085 31.992 7.351 13.775-1.471 30.66-9.662 43.99-6.931 11.331-11.132 18.44-6.721 28.216q1.89 4 5.041 6.665c4.621 4.221 12.812 16.441-14.702 38.436"/><path fill="#453c87" d="M922.221 884.025c-.21 0-.42-39.768-.42-88.646s.21-88.647.42-88.647.42 39.769.42 88.647c0 49.1-.21 88.646-.42 88.646"/><path fill="#453c87" d="M922.226 820.929s-.421-.222-1.261-.889c-.84-.666-2.1-1.777-3.57-2.888-2.941-2.444-6.931-5.998-11.552-9.553a569 569 0 0 0-11.762-9.331c-1.47-1.111-2.731-2-3.571-2.889-.84-.666-1.26-1.11-1.26-1.11s.63.222 1.47.888q1.26 1 3.781 2.666a215 215 0 0 1 11.972 9.109c4.621 3.777 8.611 7.11 11.342 9.776 1.47 1.333 2.52 2.444 3.36 3.11.63.445 1.051.889 1.051 1.111m22.679-93.313s-1.26 2-3.571 4.888-5.25 6.887-8.821 11.331c-3.36 4.443-6.511 8.442-8.611 11.331-2.311 2.888-3.571 4.665-3.781 4.665 0 0 .21-.444.84-1.333s1.47-1.999 2.521-3.555c2.1-3.11 5.04-7.109 8.401-11.553 3.361-4.443 6.511-8.442 9.031-11.108a29.5 29.5 0 0 0 2.731-3.333z"/><ellipse cx="122.83" cy="563.654" fill="#ffd052" rx="37.596" ry="39.769"/><path fill="#ffd052" d="m138.375 597.425 18.273 5.998-1.47-19.995z"/><path fill="#f5f1eb" d="M122.469 471.092h3.574l-.263 19.341h-3.048zm1.787 27.12a2.27 2.27 0 0 1-1.669-.697 2.28 2.28 0 0 1-.696-1.668q0-.973.696-1.669a2.28 2.28 0 0 1 1.669-.696q.972 0 1.668.696.697.696.697 1.669 0 .657-.316 1.182a2.45 2.45 0 0 1-.867.854 2.23 2.23 0 0 1-1.182.329"/><path fill="#40337b" d="M861.316 200.181s1.261-.444 3.991-1.333c2.94-.888 7.141-2.221 11.972-3.777 10.292-3.11 24.994-7.553 42.427-12.663l.84-.222.21.888c2.731 10.887 5.881 22.884 9.032 35.325.21-.222-1.261 2.444-.631 1.334h-.42l-.42.222-1.05.222-2.1.666c-1.471.445-2.731.889-4.201 1.111-2.73.889-5.461 1.555-8.191 2.222-5.251 1.555-10.502 2.888-15.543 4.443-9.871 2.666-18.903 5.333-26.884 7.554l-.63.222-.21-.666c-2.521-10.887-4.621-19.773-6.301-26.216-.63-2.889-1.26-5.11-1.68-7.11-.211-1.555-.211-2.444-.211-2.222 0 0 .42.889.841 2.666.63 1.778 1.26 4.222 2.1 7.11a1355 1355 0 0 0 6.931 25.55l-.84-.445c7.981-2.221 17.013-4.887 26.884-7.776 5.041-1.333 10.082-2.888 15.543-4.443 2.73-.667 5.461-1.555 8.191-2.222 1.47-.444 2.73-.889 4.201-1.111l2.1-.666 1.05-.222.42-.223h.42c.631-1.11-.84 1.556-.63 1.333-3.15-12.441-6.301-24.438-9.031-35.325l1.05.667c-17.013 4.887-31.715 8.664-42.007 11.553-5.041 1.333-9.241 2.444-12.182 3.332-3.36-.222-5.041.222-5.041.222"/><path fill="#40337b" d="M920.123 183.295c.211.223-2.31 3.555-6.511 8.887a854 854 0 0 1-16.802 20.662c-2.101.667-.63.222-1.05.222h-1.051l-.84-.222-1.68-.666c-1.26-.445-2.31-.889-3.361-1.333-2.31-.889-4.41-1.556-6.511-2.444-3.99-1.555-7.561-2.889-10.921-3.999-6.302-2.444-10.082-3.999-9.872-4.222 0-.222 3.991.889 10.292 2.889 3.36 1.11 7.141 2.443 11.131 3.777 2.101.666 4.201 1.555 6.511 2.221 1.051.445 2.311.889 3.361 1.111l1.68.667.84.222.42.222h.421c-.421.222 1.05-.222-1.051.222 6.721-7.998 12.812-15.108 17.223-20.44 4.621-4.887 7.561-7.998 7.771-7.776"/><path fill="#f19e36" d="M927.687 183.296c.84 3.555-1.051 7.332-4.621 8.443-3.361.889-6.931-1.111-7.981-4.888-.841-3.555 1.05-7.332 4.62-8.442 3.361-.889 6.931 1.11 7.982 4.887"/><path fill="#40337b" d="M67.174 375.697s1.47.222 3.99.889c2.941.889 6.932 1.777 11.763 3.11 10.081 2.666 24.574 6.665 41.376 11.331l.841.222-.21.889c-2.731 10.664-5.671 22.217-8.612 34.437.21-.223-2.1 1.333-1.26.666h-.42l-.42-.222-1.05-.222-2.101-.667c-1.26-.444-2.73-.666-3.99-1.111-2.731-.666-5.251-1.555-7.772-2.221-5.25-1.556-10.081-2.889-14.912-4.222-9.452-2.888-18.273-5.332-26.044-7.554l-.63-.222.21-.666c2.73-10.442 5.04-18.885 6.93-25.106q1.26-3.999 1.891-6.665c.21-1.999.42-2.666.42-2.666s-.21.889-.42 2.666c-.42 1.778-1.05 4.222-1.68 6.888-1.47 6.22-3.57 14.663-5.881 24.883l-.42-.889a2868 2868 0 0 0 26.044 7.332c4.83 1.333 9.872 2.888 14.913 4.221 2.52.667 5.25 1.555 7.771 2.222 1.26.444 2.73.666 3.99 1.111l2.101.666 1.05.222.42.223h.42c1.05-.667-1.47.888-1.05.666 3.15-12.219 6.091-23.772 8.821-34.214l.63 1.111c-16.382-4.888-30.455-9.11-40.536-11.998-4.831-1.555-8.822-2.666-11.762-3.554-2.73-.889-4.2-1.556-4.41-1.556"/><path fill="#40337b" d="M124.096 391.916c0 .222-3.571 1.777-9.662 4.221-6.091 2.222-14.282 5.332-23.734 8.665-2.1-.667-.63-.222-1.05-.222l-.21-.223-.21-.444-.63-.667-1.26-1.333c-.84-.888-1.47-1.777-2.31-2.888l-4.412-5.332c-2.73-3.332-5.04-6.443-7.35-9.109-4.201-5.11-6.512-8.442-6.302-8.665s2.94 2.889 7.352 7.776c2.31 2.666 4.83 5.555 7.56 8.887 1.471 1.778 2.941 3.333 4.411 5.332.84.889 1.47 1.778 2.31 2.889l1.261 1.333.63.666.21.444.21.223c-.42-.223 1.05.222-1.05-.223 9.242-3.332 17.643-6.22 23.734-8.22 6.721-2.222 10.502-3.332 10.502-3.11m833.832 58.209c-.21 0 0-4.665-1.89-12.886-.84-3.999-2.731-8.887-5.671-13.997s-7.141-10.442-12.812-14.885-12.812-8.22-21.004-9.776c-8.191-1.555-17.432-1.11-26.254 2.444-4.411 1.555-8.611 3.999-12.602 7.11-2.1 1.555-3.781 3.332-5.671 5.11-1.68 1.999-3.36 3.777-4.831 5.998-6.091 8.665-9.661 19.774-9.661 31.104 0 11.331 3.57 22.44 9.661 31.104 1.471 2.222 3.151 4.222 4.831 6.221 1.89 1.778 3.571 3.555 5.671 5.11 3.991 3.111 8.191 5.554 12.602 7.11 8.822 3.554 18.063 3.777 26.254 2.444 8.192-1.556 15.333-5.333 21.004-9.776s9.871-9.776 12.812-14.886 4.621-9.997 5.671-13.996c2.1-8.887 1.68-13.775 1.89-13.553v3.333c0 1.111 0 2.444-.42 4.221-.21 1.555-.42 3.555-1.05 5.554-.84 4.222-2.521 9.109-5.461 14.441s-7.141 10.665-12.812 15.33-13.022 8.665-21.424 10.22-17.853 1.333-26.884-2.222c-4.621-1.555-9.031-4.221-13.022-7.331-2.1-1.555-3.991-3.333-5.881-5.11-1.68-2-3.571-3.999-5.041-6.221-6.301-8.887-9.872-20.218-10.081-31.993 0-11.775 3.57-23.105 10.081-31.992 1.47-2.222 3.361-4.222 5.041-6.221 1.89-1.778 3.781-3.777 5.881-5.11 3.991-3.11 8.401-5.777 13.022-7.332 9.031-3.555 18.483-3.777 26.884-2.222s15.753 5.555 21.424 10.22 9.872 10.22 12.812 15.33c2.94 5.332 4.621 10.22 5.461 14.441.63 2 .84 3.999 1.05 5.555s.42 3.11.42 4.221z"/><path fill="#40337b" d="M961.711 450.126s0-.223-.21-.889c0-.667-.21-1.555-.21-2.666s-.21-2.666-.42-4.444c-.21-1.777-.42-3.777-1.261-5.998-1.05-4.444-2.94-9.554-6.091-15.108-3.15-5.554-7.561-11.109-13.652-15.996s-13.652-8.887-22.473-10.442c-8.822-1.556-18.693-1.333-28.145 2.444-4.831 1.777-9.241 4.443-13.442 7.776-2.1 1.555-3.991 3.554-6.091 5.554-1.89 1.999-3.781 4.221-5.251 6.665-6.511 9.331-10.292 21.106-10.292 33.326 0 6.221 1.051 12.219 2.731 17.773 1.68 5.777 4.411 10.887 7.561 15.552 1.47 2.444 3.361 4.444 5.251 6.666 1.89 1.999 3.991 3.776 6.091 5.554 4.201 3.332 8.821 5.998 13.442 7.776 9.452 3.777 19.323 3.999 28.145 2.444s16.592-5.777 22.473-10.442c6.091-4.888 10.502-10.664 13.652-15.997 3.151-5.554 5.041-10.664 6.091-15.107.631-2.222.841-4.222 1.261-5.999s.42-3.11.42-4.443c0-1.111.21-2 .21-2.666 0-1.111 0-1.333.21-1.333v3.554c0 1.111 0 2.666-.42 4.444-.21 1.777-.42 3.777-1.05 5.998-.841 4.444-2.731 9.776-5.881 15.33s-7.562 11.553-13.863 16.441c-6.091 4.888-13.862 9.109-22.893 10.886-9.032 1.778-19.113 1.333-28.775-2.444a50.9 50.9 0 0 1-13.862-7.776c-2.311-1.555-4.201-3.555-6.301-5.554-1.891-2.222-3.781-4.221-5.461-6.665-3.361-4.888-6.091-10.22-7.771-15.997-1.891-5.776-2.731-11.997-2.731-18.218 0-12.663 3.991-24.883 10.712-34.214 1.68-2.444 3.57-4.666 5.461-6.665 2.1-2 3.99-3.999 6.301-5.554 4.41-3.333 9.031-5.999 13.862-7.776 9.662-3.777 19.743-3.999 28.775-2.444 9.031 1.777 16.802 5.998 22.893 10.886 6.091 5.11 10.712 10.886 13.863 16.441s5.041 10.886 5.881 15.33c.63 2.221.84 4.221 1.05 5.998s.42 3.333.42 4.444v2.666c-.21.444-.21.889-.21.889"/><path fill="#40337b" d="M907.521 407.69c-.42 0-.63-2.444-.63-5.555s.42-5.554.63-5.554c.42 0 .63 2.444.63 5.554s-.21 5.555-.63 5.555m-27.934 11.998c-.21.222-2.1-1.333-3.99-3.777s-3.151-4.443-2.731-4.665c.21-.223 2.1 1.333 3.991 3.777 1.68 2.221 2.94 4.443 2.73 4.665m63.43 67.319c-.21.222-2.101-1.333-3.991-3.777s-3.15-4.444-2.73-4.666c.21-.222 2.1 1.333 3.99 3.777 1.891 2.222 3.151 4.221 2.731 4.666m4.409-36.881c0-.445 2.31-.667 5.251-.667 2.94 0 5.25.444 5.25.667 0 .444-2.31.666-5.25.666s-5.251-.444-5.251-.666m-90.735 0c0-.445 2.311-.667 5.251-.667s5.251.444 5.251.667c0 .444-2.31.666-5.251.666-2.94 0-5.251-.444-5.251-.666m50.83 53.32c-.42 0-.63-2.443-.63-5.554 0-3.11.42-5.554.63-5.554.42 0 .63 2.444.63 5.554s-.21 5.554-.63 5.554m-30.664-26.217c.21.222-1.261 2.222-3.571 4.221s-4.201 3.333-4.411 2.889c-.21-.223 1.261-2.222 3.571-4.222 2.1-1.999 4.201-3.332 4.411-2.888m66.996-65.316c.21.222-1.26 2.221-3.571 4.221s-4.2 3.333-4.411 2.888c-.21-.222 1.261-2.221 3.571-4.221 2.1-2 3.991-3.333 4.411-2.888m-16.59 46.877c0 .222-2.31.444-6.511.444-3.991.222-9.662.222-16.173.222h-.63v-7.776c0-8.664 0-16.44.21-21.995s.21-9.109.42-9.109.42 3.555.42 9.109c.211 5.555.211 13.331.211 21.995v7.11l-.631-.667c6.512 0 12.182.222 16.173.222 3.991.222 6.511.445 6.511.445M297.162 233.287c0 .222-1.261 0-3.361.888-1.89.667-5.041 2.889-6.091 6.888-.63 1.999-.42 4.443-.42 6.887v8.442c0 1.556 0 3.111.21 4.444.21 1.555.84 2.888 1.68 4.221 1.68 2.666 4.621 4.444 7.982 4.444h.63v9.331l-1.051-.445c3.151-2.888 6.301-5.776 9.662-8.664l.21-.222h21.634c1.47 0 2.73 0 3.99-.445 2.521-.666 4.621-2.666 5.881-5.11.63-1.111.84-2.444 1.05-3.777v-12.441c0-2.666.21-5.332-.63-7.554s-2.52-3.999-4.2-5.11c-1.891-1.111-3.991-1.333-6.091-1.333h-6.091c-7.562 0-13.653-.222-18.063-.222-2.101 0-3.571 0-4.831-.222zs.63 0 1.68-.223c1.26 0 2.94 0 4.831-.222 4.41 0 10.501-.222 18.063-.222h6.09c2.101 0 4.411 0 6.512 1.333 2.1 1.111 3.78 3.111 4.83 5.554.42 1.333.84 2.666.84 4v16.44c0 1.555-.42 3.111-1.05 4.444-1.26 2.666-3.78 5.11-6.511 5.998-1.47.445-2.94.445-4.41.445h-21.424l.42-.223c-3.361 2.889-6.511 5.999-9.662 8.665l-1.05.889v-1.333c0-3.111 0-5.999.21-8.665l.63.667c-3.78 0-7.141-2-8.821-5.11-.84-1.556-1.47-3.111-1.68-4.666-.21-1.777 0-3.11 0-4.666v-8.442c0-2.666-.21-5.11.63-7.11 1.47-4.221 4.621-6.443 6.721-7.109 1.89-.889 3.151-.444 3.151-.444"/></svg>